# xmcd CD database file
#
# Track frame offsets:
#	150
#	13954
#	27775
#	58291
#	63906
#	80805
#	103324
#	115702
#	136154
#	151393
#	168534
#	180614
#	187776
#	192315
#	205469
#	216825
#
# Disc length: 3096 seconds
#
# Revision: 0
# Processed by: cddbd v1.5.2PL0 Copyright (c) Steve Scherf et al.
# Submitted via: CDex 1.70beta2
#
DISCID=e70c1610
DTITLE=Netnakisum - Nutville
DYEAR=1900
DGENRE=Jazz
TTITLE0=Jubiläumsmarsch
TTITLE1=Tanzbar
TTITLE2=Landflucht
TTITLE3=Streichergirls
TTITLE4=Nutville
TTITLE5=Hanschiwalzer
TTITLE6=Junge Leute
TTITLE7=Marsch bei meinen Eltern
TTITLE8=Bluesette
TTITLE9=Briefmark
TTITLE10=Wal
TTITLE11=Because
TTITLE12=Reprise of Wal
TTITLE13=Payadora
TTITLE14=Reinkarnationsjodler
TTITLE15=Toxic
EXTD=
EXTT0=
EXTT1=
EXTT2=
EXTT3=
EXTT4=
EXTT5=
EXTT6=
EXTT7=
EXTT8=
EXTT9=
EXTT10=
EXTT11=
EXTT12=
EXTT13=
EXTT14=
EXTT15=
PLAYORDER=
